<?xml version="1.0" encoding="utf-8"?>
<!-- Generator: Adobe Illustrator 24.1.2, SVG Export Plug-In . SVG Version: 6.00 Build 0)  -->
<svg version="1.1" xmlns="http://www.w3.org/2000/svg" xmlns:xlink="http://www.w3.org/1999/xlink" x="0px" y="0px"
	 viewBox="0 0 629 400.8" style="enable-background:new 0 0 629 400.8;" xml:space="preserve">
<style type="text/css">
	.st0{fill:#1EC677;}
</style>
<g id="Layer_1">
	<path class="st0" d="M448.6,56.1c-11.8,0-25.9,4.2-39.4,18.8c-13.5-14.6-27.7-18.8-39.4-18.8c0,0-45.1-3.4-45.1,49.3v85.3h32.7
		v-80.5c0-23.6,15.8-24.1,18.9-23.4c0,0,5.7,0.3,10.9,5.7c0,0-10.4,13.6-11.2,30.7c0,0-2.3,44.3,33.2,44.3s33.2-44.3,33.2-44.3
		c-0.8-17.1-11.2-30.7-11.2-30.7c5.2-5.4,10.9-5.7,10.9-5.7c3-0.7,18.9-0.2,18.9,23.4v80.5h32.7v-85.3
		C493.6,52.7,448.6,56.1,448.6,56.1z M409.1,143.5c-7,0-9.3-8.8-9.4-17.2c-0.2-14.6,9.3-25.1,9.4-25.3c0.2,0.2,9.6,10.7,9.4,25.3
		C418.5,134.7,416.1,143.5,409.1,143.5z"/>
	<path class="st0" d="M306.3,58.3h-32.7v132.5h32.7V58.3z"/>
	<path class="st0" d="M290,0.9c-10.9,0-19.9,8.8-19.9,19.6c0,10.9,8.9,19.9,19.9,19.9c10.8,0,19.6-8.9,19.6-19.9
		C309.6,9.9,300.7,0.9,290,0.9z"/>
	<path class="st0" d="M170.1,67.2V0h-32.4v190.8h32.4V95.3c53.7-26.1,51.7,15.2,51.7,15.2v80.3h32.5v-80.3
		C254.2,32.9,186.4,58.5,170.1,67.2z"/>
	<path class="st0" d="M538.6,131c17.4,6.1,39.5,5.6,39.5,5.6c52.4-0.3,50.9-38.4,50.9-38.4c-1.3-42.9-51.7-42.1-51.7-42.1
		c-41.7,0-70.9,28.6-70.9,69.5c0,40.9,28.6,67.3,72.8,67.3c18.8,0,36.7-5.2,49.2-14.3v-31.5c-13.1,11.3-28.8,17.3-45.4,17.3
		C583.1,164.4,537.7,166.7,538.6,131z M542.6,103.1c5.5-13.9,16.9-21.2,33.1-21.2c13.3,0,21,5.6,21,14.5c0,12.5-14.1,13.6-27.3,13.6
		c-13,0-21-1.4-24.6-2.3l-3.5-0.8L542.6,103.1z"/>
	<path class="st0" d="M70.6,192.9c23,0,39.3-8.7,49-16v-31.7c-14.3,11.3-31.1,17.8-46,17.8c-23.8,0-40.5-16.4-40.5-40
		c0-22.4,15.2-38,36.9-38c7.1,0,13.2,1.8,19.7,3.6c6.7,1.9,13.7,4,22,4c2.6,0,5.2-0.2,7.8-0.6V61.8c-2.2,0.2-4.3,0.4-6.5,0.4
		c-7.5,0-14.3-1.4-21.4-2.9c-7.5-1.6-15.2-3.2-24.3-3.2c-18.1,0-34.9,6.4-47.2,18.2C7,86.8,0,104.2,0,124.5
		C0,164.8,29,192.9,70.6,192.9z"/>
</g>
<g id="Layer_2">
	<g>
		<path class="st0" d="M170.1,397.6h-32.3V204.3h32.3V397.6z"/>
		<path class="st0" d="M273.7,400.6c-22.4,0-39.5-7.6-51.4-22.8c-11.8-15.2-17.7-32.6-17.7-52.3c0-21.1,6.5-38.8,19.6-52.8
			c13.1-14.1,30.3-21.1,51.7-21.1c20.3,0,37,6.8,50.1,20.5c13.1,13.7,19.6,31.5,19.6,53.4c0,22.6-6.8,40.7-20.3,54.4
			C311.8,393.7,294.6,400.6,273.7,400.6z M274.9,374c23,0,34.5-16.2,34.5-48.6c0-14.6-2.8-26.2-8.3-34.6c-5.5-8.4-14-12.7-25.4-12.7
			c-11.8,0-20.6,4.4-26.3,13.1c-5.7,8.7-8.6,20.3-8.6,34.8c0,15.6,3,27.5,9.1,35.7C256.1,369.9,264.4,374,274.9,374z"/>
		<path class="st0" d="M490.5,397.6h-32.3v-89.4c0-9.4-2.2-16.5-6.5-21.3c-4.3-4.8-9.6-7.2-15.7-7.2c-8.4,0-15.8,3.7-22.1,11
			c-6.3,7.4-9.5,18.5-9.5,33.3v73.5h-32.3v-143h29.5v33.1c10.3-24.1,24.7-36.1,43.3-36.1c12.6,0,23.3,4,32.2,11.9
			c8.9,7.9,13.4,21.9,13.4,41.8V397.6z"/>
	</g>
</g>
<g id="Layer_3">
	<path class="st0" d="M70.6,392.4c23,0,39.3-8.7,49-16v-31.7c-14.3,11.3-31.1,17.8-46,17.8c-23.8,0-40.5-16.4-40.5-40
		c0-22.4,15.2-38,36.9-38c7.1,0,13.2,1.8,19.7,3.6c6.7,1.9,13.7,4,22,4c2.6,0,5.2-0.2,7.8-0.6v-30.2c-2.2,0.2-4.3,0.4-6.5,0.4
		c-7.5,0-14.3-1.4-21.4-2.9c-7.5-1.6-15.2-3.2-24.3-3.2c-18.1,0-34.9,6.4-47.2,18.2C7,286.3,0,303.7,0,324
		C0,364.3,29,392.4,70.6,392.4z"/>
	<path class="st0" d="M538.6,330.5c17.4,6.1,39.5,5.6,39.5,5.6c52.4-0.3,50.9-38.4,50.9-38.4c-1.3-42.9-51.7-42.1-51.7-42.1
		c-41.7,0-70.9,28.6-70.9,69.5c0,40.9,28.6,67.3,72.8,67.3c18.8,0,36.7-5.2,49.2-14.3v-31.5c-13.1,11.3-28.8,17.3-45.4,17.3
		C583.1,363.9,537.7,366.2,538.6,330.5z M542.6,302.6c5.5-13.9,16.9-21.2,33.1-21.2c13.3,0,21,5.6,21,14.5
		c0,12.5-14.1,13.6-27.3,13.6c-13,0-21-1.4-24.6-2.3l-3.5-0.8L542.6,302.6z"/>
</g>
</svg>
